# xmcd
#
# Track frame offsets: 
#        150
#        11501
#        21569
#        34525
#        47818
#        60148
#        71210
#        83165
#        95423
#        107332
#        119104
#        131689
#        140731
#        151283
#        160916
#        172236
#        180927
#        190721
#        202347
#        215213
#        226656
#        239276
#        253366
#        266707
#        278577
#        288669
#
# Disc length: 3994 seconds
#
# Revision: 0
# Processed by: cddbd v1.5.2PL0 Copyright (c) Steve Scherf et al.
# Submitted via: ExactAudioCopy v0.99pb4
#
DISCID=850f981a
DTITLE=Various Artist - Acadian All Star Special - Disc 3
DYEAR=2011
DGENRE=Country
TTITLE0=Pee Wee Broussard and His Melody Boys - The Waltz That Carried M
TTITLE0=e To The Grave
TTITLE1=Pee Wee Broussard and His Melody Boys - The Pee Wee Special
TTITLE2=Papa Cairo and His Boys - Big Texas (English)
TTITLE3=Papa Cairo and His Boys - Big Texas (French)
TTITLE4=Pee Wee Broussard and His Melody Boys - Chere Tu Tu
TTITLE5=Pee Wee Broussard and His Melody Boys - Creole Stomp
TTITLE6=Amidie Breaux and His Band - Hey, Mom!
TTITLE7=Amidie Breaux and His Band - Hard Luck Waltz
TTITLE8=Jimmy Newman and The Rhythm Boys - (I Know Now That) I've Made A
TTITLE8=Big Mistake
TTITLE9=Jimmy Newman and The Rhythm Boys - I Don't Know What I'm Going T
TTITLE9=o Do
TTITLE10=Pee Wee Broussard and His Melody Boys - La Valse De Bayou Blanc
TTITLE11=Pee Wee Broussard and His Melody Boys - M&S Special
TTITLE12=Abe Manuel and His Louisiana Hillbillies - Country Gentleman (F
TTITLE12=rench)
TTITLE13=Abe Manuel and His Louisiana Hillbillies - I've Got Your Heart 
TTITLE13=Locked Up (French)
TTITLE14=Terry Clement and His Rhythmic Five - La Valse De Te Maurice
TTITLE15=Terry Clement and His Rhythmic Five - Diggly Liggy Lo
TTITLE16=Abe Manuel and His Louisiana Hillbillies - Hippy-Ti-Yo
TTITLE17=Abe Manuel and His Louisiana Hillbillies - Country Girl
TTITLE18=Aldus Roger and Lafayette Playboys - Love Sick Waltz
TTITLE19=Aldus Roger and Lafayette Playboys - Mardi Gras Dance
TTITLE20=Austin Pete and The Lousiana Rhythmaires - Prison Two Step
TTITLE21=Austin Pete and The Lousiana Rhythmaires - La Valse De Chagrin
TTITLE22=Austin Pete and The Lousiana Rhythmaires - St. Landry Waltz
TTITLE23=Austin Pete and The Lousiana Rhythmaires - Janot Special
TTITLE24=Robert Bertrand and The Lake Charles Playboys - Lost Love Waltz
TTITLE25=Robert Bertrand and The Lake Charles Playboys - Drunkard's Two 
TTITLE25=Step
EXTD=
EXTT0=
EXTT1=
EXTT2=
EXTT3=
EXTT4=
EXTT5=
EXTT6=
EXTT7=
EXTT8=
EXTT9=
EXTT10=
EXTT11=
EXTT12=
EXTT13=
EXTT14=
EXTT15=
EXTT16=
EXTT17=
EXTT18=
EXTT19=
EXTT20=
EXTT21=
EXTT22=
EXTT23=
EXTT24=
EXTT25=
PLAYORDER=
